# xmcd CD database file
#
# Track frame offsets:
#	150
#	14469
#	25752
#	44492
#	64285
#	82225
#	95478
#	108504
#	124757
#	137741
#	149815
#	161323
#	175291
#	186104
#	199872
#
# Disc length: 2837 seconds
#
# Revision: 0
# Processed by: cddbd v1.5.1PL0 Copyright (c) Steve Scherf et al.
# Submitted via: CDex 1.51
#
DISCID=dd0b130f
DTITLE=Sydney Bechet - Loveless Love
DYEAR=2002
DGENRE=Jazz
TTITLE0=Indian Summer
TTITLE1=One O'Clock Jump
TTITLE2=Summertime
TTITLE3=Blues for Tommy
TTITLE4=Pounding Heart Blues
TTITLE5=Loveless Love
TTITLE6=I'm Just Wild About Harry
TTITLE7=Really the Blues
TTITLE8=Sidney's Blues
TTITLE9=Magic Island Merengue
TTITLE10=Mayotte Merengue
TTITLE11=Preachin' Blues
TTITLE12=Rose Rhumba
TTITLE13=Tropical Moon
TTITLE14=Polka Dot Rag
EXTD=YEAR: 2002
EXTT0=
EXTT1=
EXTT2=
EXTT3=
EXTT4=
EXTT5=
EXTT6=
EXTT7=
EXTT8=
EXTT9=
EXTT10=
EXTT11=
EXTT12=
EXTT13=
EXTT14=
PLAYORDER=
